<?xml version="1.0" encoding="UTF-8"?>
<!DOCTYPE svg PUBLIC "-//W3C//DTD SVG 1.1//EN" "http://www.w3.org/Graphics/SVG/1.1/DTD/svg11.dtd">
<!-- Creator: CorelDRAW X8 -->
<svg xmlns="http://www.w3.org/2000/svg" xml:space="preserve" width="16.5942mm" height="7.5607mm" version="1.1" style="shape-rendering:geometricPrecision; text-rendering:geometricPrecision; image-rendering:optimizeQuality; fill-rule:evenodd; clip-rule:evenodd"
viewBox="0 0 149 68"
 xmlns:xlink="http://www.w3.org/1999/xlink">
 <defs>
  <style type="text/css">
   <![CDATA[
    .fil0 {fill:#30302F;fill-rule:nonzero}
    .fil1 {fill:#313130;fill-rule:nonzero}
    .fil2 {fill:#333232;fill-rule:nonzero}
    .fil3 {fill:#333332;fill-rule:nonzero}
    .fil4 {fill:#343433;fill-rule:nonzero}
    .fil5 {fill:#363635;fill-rule:nonzero}
    .fil6 {fill:#373736;fill-rule:nonzero}
    .fil7 {fill:#383837;fill-rule:nonzero}
    .fil8 {fill:#393938;fill-rule:nonzero}
    .fil9 {fill:#3B3B3A;fill-rule:nonzero}
    .fil10 {fill:#3B3B3B;fill-rule:nonzero}
    .fil11 {fill:#3D3D3C;fill-rule:nonzero}
    .fil12 {fill:#3E3E3D;fill-rule:nonzero}
    .fil13 {fill:#3E3E3D;fill-rule:nonzero}
    .fil14 {fill:#40403F;fill-rule:nonzero}
    .fil15 {fill:#414140;fill-rule:nonzero}
    .fil16 {fill:#424241;fill-rule:nonzero}
    .fil17 {fill:#434342;fill-rule:nonzero}
    .fil18 {fill:#444444;fill-rule:nonzero}
    .fil19 {fill:#454544;fill-rule:nonzero}
    .fil20 {fill:#464545;fill-rule:nonzero}
    .fil21 {fill:#474746;fill-rule:nonzero}
    .fil22 {fill:#484847;fill-rule:nonzero}
    .fil23 {fill:#494948;fill-rule:nonzero}
    .fil24 {fill:#4A4A49;fill-rule:nonzero}
    .fil25 {fill:#4B4B4A;fill-rule:nonzero}
    .fil26 {fill:#4C4C4B;fill-rule:nonzero}
    .fil27 {fill:#4C4C4C;fill-rule:nonzero}
    .fil28 {fill:#4E4E4D;fill-rule:nonzero}
    .fil29 {fill:#4E4E4D;fill-rule:nonzero}
    .fil30 {fill:#504F4F;fill-rule:nonzero}
    .fil31 {fill:#50504F;fill-rule:nonzero}
    .fil32 {fill:#515150;fill-rule:nonzero}
    .fil33 {fill:#525251;fill-rule:nonzero}
    .fil34 {fill:#535352;fill-rule:nonzero}
    .fil35 {fill:#535353;fill-rule:nonzero}
    .fil36 {fill:#545453;fill-rule:nonzero}
    .fil37 {fill:#555554;fill-rule:nonzero}
    .fil38 {fill:#565555;fill-rule:nonzero}
    .fil39 {fill:#575756;fill-rule:nonzero}
    .fil40 {fill:#575756;fill-rule:nonzero}
    .fil41 {fill:#585857;fill-rule:nonzero}
    .fil42 {fill:#595858;fill-rule:nonzero}
    .fil43 {fill:#595958;fill-rule:nonzero}
    .fil44 {fill:#5A5A59;fill-rule:nonzero}
    .fil45 {fill:#5B5A5A;fill-rule:nonzero}
    .fil46 {fill:#5C5C5B;fill-rule:nonzero}
    .fil47 {fill:#5C5C5B;fill-rule:nonzero}
    .fil48 {fill:#5D5D5C;fill-rule:nonzero}
    .fil49 {fill:#5D5D5C;fill-rule:nonzero}
    .fil50 {fill:#5E5D5D;fill-rule:nonzero}
    .fil51 {fill:#5F5F5E;fill-rule:nonzero}
    .fil52 {fill:#5F5F5E;fill-rule:nonzero}
    .fil53 {fill:#60605F;fill-rule:nonzero}
    .fil54 {fill:#61605F;fill-rule:nonzero}
    .fil55 {fill:#626160;fill-rule:nonzero}
    .fil56 {fill:#626160;fill-rule:nonzero}
    .fil57 {fill:#626261;fill-rule:nonzero}
    .fil58 {fill:#636362;fill-rule:nonzero}
    .fil59 {fill:#636362;fill-rule:nonzero}
    .fil60 {fill:#636363;fill-rule:nonzero}
    .fil61 {fill:#646463;fill-rule:nonzero}
    .fil62 {fill:#656564;fill-rule:nonzero}
    .fil63 {fill:#656564;fill-rule:nonzero}
    .fil64 {fill:#656564;fill-rule:nonzero}
    .fil65 {fill:#666665;fill-rule:nonzero}
    .fil66 {fill:#666665;fill-rule:nonzero}
    .fil67 {fill:#676665;fill-rule:nonzero}
    .fil68 {fill:#676766;fill-rule:nonzero}
    .fil69 {fill:#686767;fill-rule:nonzero}
    .fil70 {fill:#686867;fill-rule:nonzero}
    .fil71 {fill:#686867;fill-rule:nonzero}
    .fil72 {fill:#686867;fill-rule:nonzero}
    .fil73 {fill:#696968;fill-rule:nonzero}
    .fil74 {fill:#696968;fill-rule:nonzero}
    .fil75 {fill:#696968;fill-rule:nonzero}
    .fil76 {fill:#6A6A69;fill-rule:nonzero}
    .fil77 {fill:#6A6A69;fill-rule:nonzero}
    .fil78 {fill:#6A6A69;fill-rule:nonzero}
    .fil79 {fill:#6A6A69;fill-rule:nonzero}
    .fil80 {fill:#6B6B6A;fill-rule:nonzero}
    .fil81 {fill:#6B6B6A;fill-rule:nonzero}
    .fil82 {fill:#6B6B6A;fill-rule:nonzero}
    .fil83 {fill:#6B6B6A;fill-rule:nonzero}
    .fil84 {fill:#6C6C6A;fill-rule:nonzero}
    .fil85 {fill:#6C6C6B;fill-rule:nonzero}
    .fil86 {fill:#6C6C6B;fill-rule:nonzero}
    .fil87 {fill:#6C6C6B;fill-rule:nonzero}
    .fil88 {fill:#6C6C6B;fill-rule:nonzero}
    .fil89 {fill:#6C6C6B;fill-rule:nonzero}
    .fil90 {fill:#6C6C6B;fill-rule:nonzero}
    .fil91 {fill:#6D6D6C;fill-rule:nonzero}
    .fil92 {fill:#6D6D6C;fill-rule:nonzero}
    .fil93 {fill:#6D6D6C;fill-rule:nonzero}
    .fil94 {fill:#6D6D6C;fill-rule:nonzero}
    .fil95 {fill:#6D6D6C;fill-rule:nonzero}
    .fil96 {fill:#6D6D6C;fill-rule:nonzero}
    .fil97 {fill:#6D6E6D;fill-rule:nonzero}
    .fil98 {fill:#6E6E6D;fill-rule:nonzero}
    .fil99 {fill:#6E6E6D;fill-rule:nonzero}
    .fil100 {fill:#6E6E6D;fill-rule:nonzero}
    .fil101 {fill:#6E6E6D;fill-rule:nonzero}
    .fil102 {fill:#6E6E6D;fill-rule:nonzero}
    .fil103 {fill:#6E6E6D;fill-rule:nonzero}
    .fil104 {fill:#6E6E6D;fill-rule:nonzero}
    .fil105 {fill:#6E6E6D;fill-rule:nonzero}
    .fil106 {fill:#6E6E6D;fill-rule:nonzero}
    .fil107 {fill:#6E6E6D;fill-rule:nonzero}
    .fil108 {fill:#6E6E6D;fill-rule:nonzero}
    .fil109 {fill:#6E6F6E;fill-rule:nonzero}
    .fil110 {fill:#6E6F6D;fill-rule:nonzero}
    .fil111 {fill:#6E6E6D;fill-rule:nonzero}
    .fil112 {fill:#6E6E6D;fill-rule:nonzero}
    .fil113 {fill:#6E6F6E;fill-rule:nonzero}
    .fil114 {fill:#6E6F6D;fill-rule:nonzero}
    .fil115 {fill:#6E6E6D;fill-rule:nonzero}
    .fil116 {fill:#6E6E6D;fill-rule:nonzero}
    .fil117 {fill:#6E6E6D;fill-rule:nonzero}
    .fil118 {fill:#6E6E6D;fill-rule:nonzero}
    .fil119 {fill:#6E6E6D;fill-rule:nonzero}
    .fil120 {fill:#6E6E6D;fill-rule:nonzero}
    .fil121 {fill:#6E6E6D;fill-rule:nonzero}
    .fil122 {fill:#6D6E6D;fill-rule:nonzero}
    .fil123 {fill:#6D6E6D;fill-rule:nonzero}
    .fil124 {fill:#6D6D6C;fill-rule:nonzero}
    .fil125 {fill:#6C6C6C;fill-rule:nonzero}
    .fil126 {fill:#6B6B6B;fill-rule:nonzero}
    .fil127 {fill:#6A6A6A;fill-rule:nonzero}
    .fil128 {fill:dimgray;fill-rule:nonzero}
    .fil129 {fill:#686869;fill-rule:nonzero}
    .fil130 {fill:#676768;fill-rule:nonzero}
    .fil131 {fill:#676668;fill-rule:nonzero}
    .fil132 {fill:#656567;fill-rule:nonzero}
    .fil133 {fill:#656466;fill-rule:nonzero}
    .fil134 {fill:#646365;fill-rule:nonzero}
    .fil135 {fill:#636265;fill-rule:nonzero}
    .fil136 {fill:#616164;fill-rule:nonzero}
    .fil137 {fill:#616063;fill-rule:nonzero}
    .fil138 {fill:#605F63;fill-rule:nonzero}
    .fil139 {fill:#5F5E62;fill-rule:nonzero}
    .fil140 {fill:#5E5D61;fill-rule:nonzero}
    .fil141 {fill:#5D5C60;fill-rule:nonzero}
    .fil142 {fill:#5C5B5F;fill-rule:nonzero}
    .fil143 {fill:#5B5A5F;fill-rule:nonzero}
    .fil144 {fill:#5B595E;fill-rule:nonzero}
    .fil145 {fill:#5A585D;fill-rule:nonzero}
    .fil146 {fill:#59575C;fill-rule:nonzero}
    .fil147 {fill:#58565C;fill-rule:nonzero}
    .fil148 {fill:#57545B;fill-rule:nonzero}
    .fil149 {fill:#56535A;fill-rule:nonzero}
    .fil150 {fill:#565359;fill-rule:nonzero}
    .fil151 {fill:#555258;fill-rule:nonzero}
    .fil152 {fill:#545158;fill-rule:nonzero}
    .fil153 {fill:#535057;fill-rule:nonzero}
    .fil154 {fill:#524F57;fill-rule:nonzero}
    .fil155 {fill:#514E56;fill-rule:nonzero}
    .fil156 {fill:#504D55;fill-rule:nonzero}
    .fil157 {fill:#504D55;fill-rule:nonzero}
    .fil158 {fill:#4F4C54;fill-rule:nonzero}
    .fil159 {fill:#4E4B53;fill-rule:nonzero}
    .fil160 {fill:#4D4A53;fill-rule:nonzero}
    .fil161 {fill:#4C4952;fill-rule:nonzero}
    .fil162 {fill:#4B4951;fill-rule:nonzero}
    .fil163 {fill:#4B4850;fill-rule:nonzero}
    .fil164 {fill:#4A4750;fill-rule:nonzero}
    .fil165 {fill:#49464F;fill-rule:nonzero}
    .fil166 {fill:#48454F;fill-rule:nonzero}
    .fil167 {fill:#47444E;fill-rule:nonzero}
    .fil168 {fill:#47444D;fill-rule:nonzero}
    .fil169 {fill:#46434D;fill-rule:nonzero}
    .fil170 {fill:#46424C;fill-rule:nonzero}
    .fil171 {fill:#45414B;fill-rule:nonzero}
    .fil172 {fill:#44414A;fill-rule:nonzero}
    .fil173 {fill:#43404A;fill-rule:nonzero}
    .fil174 {fill:#433F49;fill-rule:nonzero}
    .fil175 {fill:#423E49;fill-rule:nonzero}
    .fil176 {fill:#413E48;fill-rule:nonzero}
    .fil177 {fill:#413D47;fill-rule:nonzero}
    .fil178 {fill:#403C47;fill-rule:nonzero}
    .fil179 {fill:#3F3B46;fill-rule:nonzero}
    .fil180 {fill:#3E3B45;fill-rule:nonzero}
    .fil181 {fill:#3D3A45;fill-rule:nonzero}
    .fil182 {fill:#3D3A44;fill-rule:nonzero}
    .fil183 {fill:#3C3943;fill-rule:nonzero}
    .fil184 {fill:#3C3843;fill-rule:nonzero}
    .fil185 {fill:#3B3842;fill-rule:nonzero}
    .fil186 {fill:#3A3742;fill-rule:nonzero}
    .fil187 {fill:#393641;fill-rule:nonzero}
    .fil188 {fill:#393641;fill-rule:nonzero}
    .fil189 {fill:#393540;fill-rule:nonzero}
    .fil190 {fill:#38353F;fill-rule:nonzero}
    .fil191 {fill:#37343F;fill-rule:nonzero}
    .fil192 {fill:#36333E;fill-rule:nonzero}
    .fil193 {fill:#36333D;fill-rule:nonzero}
    .fil194 {fill:#35323D;fill-rule:nonzero}
    .fil195 {fill:#35313C;fill-rule:nonzero}
    .fil196 {fill:#34303B;fill-rule:nonzero}
    .fil197 {fill:#34303B;fill-rule:nonzero}
    .fil198 {fill:#332F3B;fill-rule:nonzero}
    .fil199 {fill:#332F3A;fill-rule:nonzero}
    .fil200 {fill:#322E39;fill-rule:nonzero}
    .fil201 {fill:#312E39;fill-rule:nonzero}
   ]]>
  </style>
    <clipPath id="id0" style="clip-rule:nonzero">
     <path d="M14 0c0,8 0,17 0,25 0,9 0,17 0,26 -5,0 -9,0 -14,0 0,-9 0,-17 0,-26 0,-8 0,-17 0,-25 5,0 9,0 14,0zm27 13c5,0 10,2 13,6 4,3 6,8 6,13 0,5 -2,10 -6,14 -4,4 -8,5 -14,5 -5,0 -9,-1 -13,-5 -4,-4 -6,-9 -6,-14 0,-5 2,-10 6,-14 4,-3 8,-5 14,-5zm-1 14c-1,0 -2,0 -3,1 -1,1 -2,3 -2,4 0,2 1,3 2,4 1,1 2,2 3,2 2,0 3,-1 4,-2 1,-1 2,-2 2,-4 0,-1 -1,-3 -2,-4 -1,-1 -2,-1 -4,-1zm47 8c0,5 0,9 0,13 -2,1 -4,1 -6,1 -4,0 -8,-1 -11,-5 -3,-3 -5,-7 -5,-12 0,-6 2,-10 6,-14 3,-3 8,-5 13,-5 3,0 6,0 9,2 2,1 4,2 6,4 2,4 4,8 4,14 0,4 0,9 0,13 0,6 -2,12 -6,16 -4,4 -9,6 -15,6 -1,0 -4,-1 -6,-2 0,-4 0,-8 0,-12 1,1 3,1 5,1 2,0 4,-1 6,-2 1,-2 2,-4 2,-7 0,-5 0,-9 0,-14 0,-4 -2,-6 -5,-6 -1,0 -2,1 -3,2 -1,1 -2,2 -2,3 0,2 1,3 2,4 1,1 2,1 3,1 1,0 2,0 3,-1zm43 -22c5,0 9,2 13,6 4,3 6,8 6,13 0,5 -2,10 -6,14 -4,4 -8,5 -14,5 -5,0 -10,-1 -13,-5 -4,-4 -6,-9 -6,-14 0,-5 2,-10 6,-14 3,-3 8,-5 14,-5zm-1 14c-1,0 -2,0 -4,1 -1,1 -1,3 -1,4 0,2 0,3 2,4 1,1 2,2 3,2 2,0 3,-1 4,-2 1,-1 2,-2 2,-4 0,-1 -1,-3 -2,-4 -1,-1 -2,-1 -4,-1z"/>
    </clipPath>
 </defs>
 <g id="Layer_x0020_1">
  <metadata id="CorelCorpID_0Corel-Layer"/>
  <g>
   <g style="clip-path:url(#id0)">
    <polygon class="fil0" points="0,68 0,68 149,68 149,68 "/>
    <polygon id="1" class="fil1" points="0,68 0,68 149,68 149,68 "/>
    <polygon id="2" class="fil2" points="0,68 0,67 149,67 149,68 "/>
    <polygon id="3" class="fil3" points="0,67 0,67 149,67 149,67 "/>
    <polygon id="4" class="fil4" points="0,67 0,67 149,67 149,67 "/>
    <polygon id="5" class="fil5" points="0,67 0,66 149,66 149,67 "/>
    <polygon id="6" class="fil6" points="0,66 0,66 149,66 149,66 "/>
    <polygon id="7" class="fil7" points="0,66 0,66 149,66 149,66 "/>
    <polygon id="8" class="fil8" points="0,66 0,65 149,65 149,66 "/>
    <polygon id="9" class="fil9" points="0,65 0,65 149,65 149,65 "/>
    <polygon id="10" class="fil10" points="0,65 0,65 149,65 149,65 "/>
    <polygon id="11" class="fil11" points="0,65 0,64 149,64 149,65 "/>
    <polygon id="12" class="fil12" points="0,64 0,64 149,64 149,64 "/>
    <polygon id="13" class="fil13" points="0,64 0,64 149,64 149,64 "/>
    <polygon id="14" class="fil14" points="0,64 0,63 149,63 149,64 "/>
    <polygon id="15" class="fil15" points="0,63 0,63 149,63 149,63 "/>
    <polygon id="16" class="fil16" points="0,63 0,63 149,63 149,63 "/>
    <polygon id="17" class="fil17" points="0,63 0,62 149,62 149,63 "/>
    <polygon id="18" class="fil18" points="0,62 0,62 149,62 149,62 "/>
    <polygon id="19" class="fil19" points="0,62 0,61 149,61 149,62 "/>
    <polygon id="20" class="fil20" points="0,62 0,61 149,61 149,62 "/>
    <polygon id="21" class="fil21" points="0,61 0,61 149,61 149,61 "/>
    <polygon id="22" class="fil22" points="0,61 0,60 149,60 149,61 "/>
    <polygon id="23" class="fil23" points="0,61 0,60 149,60 149,61 "/>
    <polygon id="24" class="fil24" points="0,60 0,60 149,60 149,60 "/>
    <polygon id="25" class="fil25" points="0,60 0,59 149,59 149,60 "/>
    <polygon id="26" class="fil26" points="0,60 0,59 149,59 149,60 "/>
    <polygon id="27" class="fil27" points="0,59 0,59 149,59 149,59 "/>
    <polygon id="28" class="fil28" points="0,59 0,58 149,58 149,59 "/>
    <polygon id="29" class="fil29" points="0,59 0,58 149,58 149,59 "/>
    <polygon id="30" class="fil30" points="0,58 0,58 149,58 149,58 "/>
    <polygon id="31" class="fil31" points="0,58 0,57 149,57 149,58 "/>
    <polygon id="32" class="fil32" points="0,58 0,57 149,57 149,58 "/>
    <polygon id="33" class="fil33" points="0,57 0,57 149,57 149,57 "/>
    <polygon id="34" class="fil34" points="0,57 0,56 149,56 149,57 "/>
    <polygon id="35" class="fil35" points="0,57 0,56 149,56 149,57 "/>
    <polygon id="36" class="fil36" points="0,56 0,56 149,56 149,56 "/>
    <polygon id="37" class="fil37" points="0,56 0,55 149,55 149,56 "/>
    <polygon id="38" class="fil38" points="0,56 0,55 149,55 149,56 "/>
    <polygon id="39" class="fil39" points="0,55 0,55 149,55 149,55 "/>
    <polygon id="40" class="fil40" points="0,55 0,54 149,54 149,55 "/>
    <polygon id="41" class="fil41" points="0,55 0,54 149,54 149,55 "/>
    <polygon id="42" class="fil42" points="0,54 0,54 149,54 149,54 "/>
    <polygon id="43" class="fil43" points="0,54 0,53 149,53 149,54 "/>
    <polygon id="44" class="fil44" points="0,53 0,53 149,53 149,53 "/>
    <polygon id="45" class="fil45" points="0,53 0,53 149,53 149,53 "/>
    <polygon id="46" class="fil46" points="0,53 0,52 149,52 149,53 "/>
    <polygon id="47" class="fil47" points="0,52 0,52 149,52 149,52 "/>
    <polygon id="48" class="fil48" points="0,52 0,52 149,52 149,52 "/>
    <polygon id="49" class="fil49" points="0,52 0,51 149,51 149,52 "/>
    <polygon id="50" class="fil50" points="0,51 0,51 149,51 149,51 "/>
    <polygon id="51" class="fil51" points="0,51 0,51 149,51 149,51 "/>
    <polygon id="52" class="fil52" points="0,51 0,50 149,50 149,51 "/>
    <polygon id="53" class="fil53" points="0,50 0,50 149,50 149,50 "/>
    <polygon id="54" class="fil54" points="0,50 0,50 149,50 149,50 "/>
    <polygon id="55" class="fil55" points="0,50 0,49 149,49 149,50 "/>
    <polygon id="56" class="fil56" points="0,49 0,49 149,49 149,49 "/>
    <polygon id="57" class="fil57" points="0,49 0,49 149,49 149,49 "/>
    <polygon id="58" class="fil58" points="0,49 0,48 149,48 149,49 "/>
    <polygon id="59" class="fil59" points="0,48 0,48 149,48 149,48 "/>
    <polygon id="60" class="fil60" points="0,48 0,48 149,48 149,48 "/>
    <polygon id="61" class="fil61" points="0,48 0,47 149,47 149,48 "/>
    <polygon id="62" class="fil62" points="0,47 0,47 149,47 149,47 "/>
    <polygon id="63" class="fil63" points="0,47 0,47 149,47 149,47 "/>
    <polygon id="64" class="fil64" points="0,47 0,46 149,46 149,47 "/>
    <polygon id="65" class="fil65" points="0,46 0,46 149,46 149,46 "/>
    <polygon id="66" class="fil66" points="0,46 0,45 149,45 149,46 "/>
    <polygon id="67" class="fil67" points="0,46 0,45 149,45 149,46 "/>
    <polygon id="68" class="fil68" points="0,45 0,45 149,45 149,45 "/>
    <polygon id="69" class="fil69" points="0,45 0,44 149,44 149,45 "/>
    <polygon id="70" class="fil70" points="0,45 0,44 149,44 149,45 "/>
    <polygon id="71" class="fil71" points="0,44 0,44 149,44 149,44 "/>
    <polygon id="72" class="fil72" points="0,44 0,43 149,43 149,44 "/>
    <polygon id="73" class="fil73" points="0,44 0,43 149,43 149,44 "/>
    <polygon id="74" class="fil74" points="0,43 0,43 149,43 149,43 "/>
    <polygon id="75" class="fil75" points="0,43 0,42 149,42 149,43 "/>
    <polygon id="76" class="fil76" points="0,43 0,42 149,42 149,43 "/>
    <polygon id="77" class="fil77" points="0,42 0,42 149,42 149,42 "/>
    <polygon id="78" class="fil78" points="0,42 0,41 149,41 149,42 "/>
    <polygon id="79" class="fil79" points="0,42 0,41 149,41 149,42 "/>
    <polygon id="80" class="fil80" points="0,41 0,41 149,41 149,41 "/>
    <polygon id="81" class="fil81" points="0,41 0,40 149,40 149,41 "/>
    <polygon id="82" class="fil82" points="0,41 0,40 149,40 149,41 "/>
    <polygon id="83" class="fil83" points="0,40 0,40 149,40 149,40 "/>
    <polygon id="84" class="fil84" points="0,40 0,39 149,39 149,40 "/>
    <polygon id="85" class="fil85" points="0,40 0,39 149,39 149,40 "/>
    <polygon id="86" class="fil86" points="0,39 0,39 149,39 149,39 "/>
    <polygon id="87" class="fil87" points="0,39 0,38 149,38 149,39 "/>
    <polygon id="88" class="fil88" points="0,39 0,38 149,38 149,39 "/>
    <polygon id="89" class="fil89" points="0,38 0,38 149,38 149,38 "/>
    <polygon id="90" class="fil90" points="0,38 0,37 149,37 149,38 "/>
    <polygon id="91" class="fil91" points="0,38 0,37 149,37 149,38 "/>
    <polygon id="92" class="fil92" points="0,37 0,37 149,37 149,37 "/>
    <polygon id="93" class="fil93" points="0,37 0,36 149,36 149,37 "/>
    <polygon id="94" class="fil94" points="0,36 0,36 149,36 149,36 "/>
    <polygon id="95" class="fil95" points="0,36 0,36 149,36 149,36 "/>
    <polygon id="96" class="fil96" points="0,36 0,35 149,35 149,36 "/>
    <polygon id="97" class="fil97" points="0,35 0,35 149,35 149,35 "/>
    <polygon id="98" class="fil98" points="0,35 0,35 149,35 149,35 "/>
    <polygon id="99" class="fil99" points="0,35 0,34 149,34 149,35 "/>
    <polygon id="100" class="fil100" points="0,34 0,34 149,34 149,34 "/>
    <polygon id="101" class="fil101" points="0,34 0,34 149,34 149,34 "/>
    <polygon id="102" class="fil102" points="0,34 0,33 149,33 149,34 "/>
    <polygon id="103" class="fil103" points="0,33 0,33 149,33 149,33 "/>
    <polygon id="104" class="fil104" points="0,33 0,33 149,33 149,33 "/>
    <polygon id="105" class="fil105" points="0,33 0,32 149,32 149,33 "/>
    <polygon id="106" class="fil106" points="0,32 0,32 149,32 149,32 "/>
    <polygon id="107" class="fil107" points="0,32 0,32 149,32 149,32 "/>
    <polygon id="108" class="fil108" points="0,32 0,31 149,31 149,32 "/>
    <polygon id="109" class="fil109" points="0,31 0,31 149,31 149,31 "/>
    <polygon id="110" class="fil110" points="0,31 0,31 149,31 149,31 "/>
    <polygon id="111" class="fil111" points="0,31 0,30 149,30 149,31 "/>
    <polygon id="112" class="fil112" points="0,30 0,30 149,30 149,30 "/>
    <polygon id="113" class="fil113" points="0,30 0,30 149,30 149,30 "/>
    <polygon id="114" class="fil114" points="0,30 0,29 149,29 149,30 "/>
    <polygon id="115" class="fil115" points="0,29 0,29 149,29 149,29 "/>
    <polygon id="116" class="fil116" points="0,29 0,28 149,28 149,29 "/>
    <polygon id="117" class="fil117" points="0,29 0,28 149,28 149,29 "/>
    <polygon id="118" class="fil118" points="0,28 0,28 149,28 149,28 "/>
    <polygon id="119" class="fil119" points="0,28 0,27 149,27 149,28 "/>
    <polygon id="120" class="fil120" points="0,28 0,27 149,27 149,28 "/>
    <polygon id="121" class="fil121" points="0,27 0,27 149,27 149,27 "/>
    <polygon id="122" class="fil122" points="0,27 0,26 149,26 149,27 "/>
    <polygon id="123" class="fil123" points="0,27 0,26 149,26 149,27 "/>
    <polygon id="124" class="fil124" points="0,26 0,26 149,26 149,26 "/>
    <polygon id="125" class="fil125" points="0,26 0,25 149,25 149,26 "/>
    <polygon id="126" class="fil126" points="0,26 0,25 149,25 149,26 "/>
    <polygon id="127" class="fil127" points="0,25 0,25 149,25 149,25 "/>
    <polygon id="128" class="fil128" points="0,25 0,24 149,24 149,25 "/>
    <polygon id="129" class="fil129" points="0,25 0,24 149,24 149,25 "/>
    <polygon id="130" class="fil130" points="0,24 0,24 149,24 149,24 "/>
    <polygon id="131" class="fil131" points="0,24 0,23 149,23 149,24 "/>
    <polygon id="132" class="fil132" points="0,24 0,23 149,23 149,24 "/>
    <polygon id="133" class="fil133" points="0,23 0,23 149,23 149,23 "/>
    <polygon id="134" class="fil134" points="0,23 0,22 149,22 149,23 "/>
    <polygon id="135" class="fil135" points="0,23 0,22 149,22 149,23 "/>
    <polygon id="136" class="fil136" points="0,22 0,22 149,22 149,22 "/>
    <polygon id="137" class="fil137" points="0,22 0,21 149,21 149,22 "/>
    <polygon id="138" class="fil138" points="0,22 0,21 149,21 149,22 "/>
    <polygon id="139" class="fil139" points="0,21 0,21 149,21 149,21 "/>
    <polygon id="140" class="fil140" points="0,21 0,20 149,20 149,21 "/>
    <polygon id="141" class="fil141" points="0,20 0,20 149,20 149,20 "/>
    <polygon id="142" class="fil142" points="0,20 0,20 149,20 149,20 "/>
    <polygon id="143" class="fil143" points="0,20 0,19 149,19 149,20 "/>
    <polygon id="144" class="fil144" points="0,19 0,19 149,19 149,19 "/>
    <polygon id="145" class="fil145" points="0,19 0,19 149,19 149,19 "/>
    <polygon id="146" class="fil146" points="0,19 0,18 149,18 149,19 "/>
    <polygon id="147" class="fil147" points="0,18 0,18 149,18 149,18 "/>
    <polygon id="148" class="fil148" points="0,18 0,18 149,18 149,18 "/>
    <polygon id="149" class="fil149" points="0,18 0,17 149,17 149,18 "/>
    <polygon id="150" class="fil150" points="0,17 0,17 149,17 149,17 "/>
    <polygon id="151" class="fil151" points="0,17 0,17 149,17 149,17 "/>
    <polygon id="152" class="fil152" points="0,17 0,16 149,16 149,17 "/>
    <polygon id="153" class="fil153" points="0,16 0,16 149,16 149,16 "/>
    <polygon id="154" class="fil154" points="0,16 0,16 149,16 149,16 "/>
    <polygon id="155" class="fil155" points="0,16 0,15 149,15 149,16 "/>
    <polygon id="156" class="fil156" points="0,15 0,15 149,15 149,15 "/>
    <polygon id="157" class="fil157" points="0,15 0,15 149,15 149,15 "/>
    <polygon id="158" class="fil158" points="0,15 0,14 149,14 149,15 "/>
    <polygon id="159" class="fil159" points="0,14 0,14 149,14 149,14 "/>
    <polygon id="160" class="fil160" points="0,14 0,14 149,14 149,14 "/>
    <polygon id="161" class="fil161" points="0,14 0,13 149,13 149,14 "/>
    <polygon id="162" class="fil162" points="0,13 0,13 149,13 149,13 "/>
    <polygon id="163" class="fil163" points="0,13 0,12 149,12 149,13 "/>
    <polygon id="164" class="fil164" points="0,13 0,12 149,12 149,13 "/>
    <polygon id="165" class="fil165" points="0,12 0,12 149,12 149,12 "/>
    <polygon id="166" class="fil166" points="0,12 0,11 149,11 149,12 "/>
    <polygon id="167" class="fil167" points="0,12 0,11 149,11 149,12 "/>
    <polygon id="168" class="fil168" points="0,11 0,11 149,11 149,11 "/>
    <polygon id="169" class="fil169" points="0,11 0,10 149,10 149,11 "/>
    <polygon id="170" class="fil170" points="0,11 0,10 149,10 149,11 "/>
    <polygon id="171" class="fil171" points="0,10 0,10 149,10 149,10 "/>
    <polygon id="172" class="fil172" points="0,10 0,9 149,9 149,10 "/>
    <polygon id="173" class="fil173" points="0,10 0,9 149,9 149,10 "/>
    <polygon id="174" class="fil174" points="0,9 0,9 149,9 149,9 "/>
    <polygon id="175" class="fil175" points="0,9 0,8 149,8 149,9 "/>
    <polygon id="176" class="fil176" points="0,9 0,8 149,8 149,9 "/>
    <polygon id="177" class="fil177" points="0,8 0,8 149,8 149,8 "/>
    <polygon id="178" class="fil178" points="0,8 0,7 149,7 149,8 "/>
    <polygon id="179" class="fil179" points="0,8 0,7 149,7 149,8 "/>
    <polygon id="180" class="fil180" points="0,7 0,7 149,7 149,7 "/>
    <polygon id="181" class="fil181" points="0,7 0,6 149,6 149,7 "/>
    <polygon id="182" class="fil182" points="0,7 0,6 149,6 149,7 "/>
    <polygon id="183" class="fil183" points="0,6 0,6 149,6 149,6 "/>
    <polygon id="184" class="fil184" points="0,6 0,5 149,5 149,6 "/>
    <polygon id="185" class="fil185" points="0,6 0,5 149,5 149,6 "/>
    <polygon id="186" class="fil186" points="0,5 0,5 149,5 149,5 "/>
    <polygon id="187" class="fil187" points="0,5 0,4 149,4 149,5 "/>
    <polygon id="188" class="fil188" points="0,5 0,4 149,4 149,5 "/>
    <polygon id="189" class="fil189" points="0,4 0,4 149,4 149,4 "/>
    <polygon id="190" class="fil190" points="0,4 0,3 149,3 149,4 "/>
    <polygon id="191" class="fil191" points="0,3 0,3 149,3 149,3 "/>
    <polygon id="192" class="fil192" points="0,3 0,3 149,3 149,3 "/>
    <polygon id="193" class="fil193" points="0,3 0,2 149,2 149,3 "/>
    <polygon id="194" class="fil194" points="0,2 0,2 149,2 149,2 "/>
    <polygon id="195" class="fil195" points="0,2 0,2 149,2 149,2 "/>
    <polygon id="196" class="fil196" points="0,2 0,1 149,1 149,2 "/>
    <polygon id="197" class="fil197" points="0,1 0,1 149,1 149,1 "/>
    <polygon id="198" class="fil198" points="0,1 0,1 149,1 149,1 "/>
    <polygon id="199" class="fil199" points="0,1 0,0 149,0 149,1 "/>
    <polygon id="200" class="fil200" points="0,0 0,0 149,0 149,0 "/>
    <polygon id="201" class="fil201" points="0,0 0,0 149,0 149,0 "/>
   </g>
  </g>
 </g>
</svg>
